<?xml version="1.0" encoding="UTF-8"?>
<svg version="1.1" xmlns="http://www.w3.org/2000/svg" width="228" height="228">
<path d="M0 0 C1.87286377 1.70951843 1.87286377 1.70951843 2.35388184 3.81661987 C2.34499939 4.6271431 2.33611694 5.43766632 2.32696533 6.27275085 C2.32666321 7.19347885 2.32636108 8.11420685 2.3260498 9.06283569 C2.30540466 10.05354568 2.28475952 11.04425568 2.26348877 12.06498718 C2.25782898 13.08176041 2.25216919 14.09853363 2.24633789 15.14611816 C2.22392896 18.39689516 2.17372318 21.64657403 2.12286377 24.89701843 C2.10280466 27.09947648 2.08455287 29.3019518 2.06817627 31.50444031 C2.02404957 36.90650833 1.95709266 42.30793494 1.87286377 47.70951843 C-1.08132062 48.62915792 -1.83528309 48.83168951 -4.81463623 47.58451843 C-7.66703675 45.27176125 -7.63958972 44.2660419 -8.12713623 40.70951843 C-8.22272329 38.98098584 -8.30559789 37.25171322 -8.37713623 35.52201843 C-9.0464126 27.99772951 -11.76573149 21.5685917 -17.31463623 16.33451843 C-27.7948212 8.44093231 -42.7681228 6.57450107 -55.56463623 8.20951843 C-64.51130778 10.17009278 -71.83117748 14.13270106 -77.00604248 21.77983093 C-77.37600342 22.41662781 -77.74596436 23.05342468 -78.12713623 23.70951843 C-78.49838623 24.32053406 -78.86963623 24.93154968 -79.25213623 25.56108093 C-81.41106126 30.86201293 -81.1979731 37.89082799 -79.18182373 43.19779968 C-72.73475705 53.96318462 -60.02348786 59.07651865 -48.75213623 63.27201843 C-46.71546933 64.05272456 -44.67900855 64.83396861 -42.64276123 65.61576843 C-40.80453537 66.31451648 -38.96602982 67.01252955 -37.12713623 67.70951843 C-20.67756864 73.95618967 -5.17350457 82.43567378 2.87286377 98.70951843 C8.37193033 111.06624446 8.24022429 123.99023342 3.87286377 136.70951843 C-1.80935136 150.51476274 -11.7497303 159.56041304 -25.48675537 165.36161804 C-36.73370857 169.52595502 -48.30162322 170.25673842 -60.18963623 170.14701843 C-60.90635498 170.14364471 -61.62307373 170.140271 -62.36151123 170.13679504 C-84.48345671 169.98694975 -108.86498364 165.99532552 -129.12713623 156.70951843 C-130.44954636 154.06469818 -130.34065304 151.94623381 -130.44354248 148.98686218 C-130.48559814 147.81582947 -130.52765381 146.64479675 -130.57098389 145.4382782 C-130.61013916 144.18716248 -130.64929443 142.93604675 -130.68963623 141.64701843 C-130.75223633 139.74810852 -130.75223633 139.74810852 -130.81610107 137.81083679 C-131.65134925 111.08459986 -131.65134925 111.08459986 -130.12713623 104.70951843 C-126.39225846 105.20750214 -124.31475989 105.584436 -121.12713623 107.70951843 C-120.70608817 110.41371445 -120.43576875 112.9890259 -120.25213623 115.70951843 C-119.59686959 122.99323586 -117.99475391 128.42463971 -114.12713623 134.70951843 C-113.78811279 135.43654968 -113.44908936 136.16358093 -113.09979248 136.91264343 C-111.67109806 139.55199859 -109.94071204 139.69184208 -107.12713623 140.70951843 C-105.76710351 141.5121607 -104.41360037 142.32590982 -103.06463623 143.14701843 C-91.41669415 149.62235465 -77.073817 150.61609038 -64.18963623 147.58451843 C-55.57696034 144.7782862 -49.57289843 140.46349583 -45.22088623 132.42436218 C-42.29170607 125.15371858 -42.53207753 118.00039764 -45.12713623 110.70951843 C-46.40785994 108.67542784 -47.73001349 106.66549027 -49.12713623 104.70951843 C-49.12713623 104.04951843 -49.12713623 103.38951843 -49.12713623 102.70951843 C-49.72026611 102.42544128 -50.313396 102.14136414 -50.92449951 101.84867859 C-53.12713623 100.70951843 -53.12713623 100.70951843 -56.36932373 98.48295593 C-62.82014085 94.41205193 -70.14682726 92.01959063 -77.25213623 89.33451843 C-113.3998823 75.6503649 -113.3998823 75.6503649 -121.12713623 60.70951843 C-126.77841919 46.50932017 -127.69842955 32.07163973 -122.50213623 17.52201843 C-115.78632609 2.4548134 -104.0436599 -6.19471107 -89.12713623 -12.29048157 C-62.00060421 -21.22739491 -24.28184647 -14.73120285 0 0 Z " fill="#143F7C" transform="translate(181.12713623046875,37.29048156738281)"/>
<path d="M0 0 C2.47070312 0.98828125 2.47070312 0.98828125 4.94140625 1.9765625 C6.51873535 2.60715576 6.51873535 2.60715576 8.12792969 3.25048828 C10.42999053 4.1717708 12.73141717 5.09463953 15.03222656 6.01904297 C22.26559586 8.92534471 22.26559586 8.92534471 29.54296875 11.71875 C45.54900098 17.7905852 60.20613012 26.23683552 68 42 C73.49906656 54.35672603 73.36736052 67.28071499 69 80 C63.26916387 93.92337164 53.25877733 102.85978945 39.44921875 108.74609375 C25.81917144 113.70107131 12.30341222 113.36350389 -2 113 C0.34958665 110.65041335 0.84766646 110.73806189 4.03515625 110.65625 C4.84533203 110.62660156 5.65550781 110.59695312 6.49023438 110.56640625 C7.33908203 110.54449219 8.18792969 110.52257812 9.0625 110.5 C15.61914769 110.32515606 21.64329489 109.64630676 28 108 C29.34384766 107.66548828 29.34384766 107.66548828 30.71484375 107.32421875 C45.39254832 103.11953361 55.67308465 96.22263629 63.37109375 82.98828125 C64.17740234 81.50908203 64.17740234 81.50908203 65 80 C65.57234375 78.98873047 65.57234375 78.98873047 66.15625 77.95703125 C69.25882807 70.76077379 69.34866028 61.74751455 70 54 C69.34 54 68.68 54 68 54 C66.70756464 49.8803623 65.73747375 46.33168317 66 42 C65.34 42 64.68 42 64 42 C62.7109375 40.3203125 62.7109375 40.3203125 61.375 38.125 C60.92898437 37.40570313 60.48296875 36.68640625 60.0234375 35.9453125 C59 34 59 34 59 32 C58.34 32 57.68 32 57 32 C57 31.34 57 30.68 57 30 C56.42765625 29.7215625 55.8553125 29.443125 55.265625 29.15625 C53.03382434 28.01726208 50.89129126 26.80063617 48.75 25.5 C48.04359375 25.0771875 47.3371875 24.654375 46.609375 24.21875 C46.07828125 23.8165625 45.5471875 23.414375 45 23 C45 22.34 45 21.68 45 21 C41.6828589 19.5783681 38.55780196 18.60990891 35 18 C35 17.34 35 16.68 35 16 C33.1128125 15.8453125 33.1128125 15.8453125 31.1875 15.6875 C27.35732976 15.37355162 27.35732976 15.37355162 25.6394043 13.57763672 C23.7432926 11.75296453 22.1981205 11.12058365 19.7265625 10.24609375 C18.4890625 9.80040039 18.4890625 9.80040039 17.2265625 9.34570312 C15.93878906 8.89614258 15.93878906 8.89614258 14.625 8.4375 C12.92951321 7.83251949 11.23419571 7.22706427 9.5390625 6.62109375 C8.74918945 6.34120605 7.95931641 6.06131836 7.14550781 5.77294922 C4.73928611 4.90607417 2.36342387 3.97746543 0 3 C0 2.01 0 1.02 0 0 Z " fill="#010828" transform="translate(116,94)"/>
<path d="M0 0 C2.31 0 4.62 0 7 0 C7 0.66 7 1.32 7 2 C7.66386719 2.04898438 8.32773438 2.09796875 9.01171875 2.1484375 C18.22219965 2.92830304 18.22219965 2.92830304 22 5 C22.495 5.99 22.495 5.99 23 7 C25.3140622 7.73075648 27.64828869 8.40138258 30 9 C30 9.66 30 10.32 30 11 C32.64 11.33 35.28 11.66 38 12 C38 12.66 38 13.32 38 14 C38.58652344 14.08121094 39.17304688 14.16242188 39.77734375 14.24609375 C44.67829866 15.90845631 47.7634942 21.64751424 50.08203125 26.05859375 C53.2466086 33.80635208 53.70653103 41.18297399 51.2890625 49.21484375 C48.91423776 54.34590447 45.01478627 58.10158435 41 62 C40.51144531 62.54398438 40.02289063 63.08796875 39.51953125 63.6484375 C32.71753596 69.69854128 21.59843334 70.08503945 13 70 C5.63526003 69.45477438 -0.95569492 67.98545469 -7.7109375 65.00390625 C-9.92509372 64.03285139 -12.14495151 63.26279341 -14.4375 62.5 C-17.91229907 61.03692671 -19.29672074 60.30010358 -21 57 C-21 56.34 -21 55.68 -21 55 C-21.61875 54.690625 -22.2375 54.38125 -22.875 54.0625 C-24.25 53.375 -25.625 52.6875 -27 52 C-27 49.69 -27 47.38 -27 45 C-25.66104368 46.66215268 -24.32869858 48.32963607 -23 50 C-22.4225 50.721875 -21.845 51.44375 -21.25 52.1875 C-20 54 -20 54 -20 56 C-19.360625 56.226875 -18.72125 56.45375 -18.0625 56.6875 C-15.48722227 57.79119046 -13.32319866 58.99740554 -10.9375 60.4375 C0.71044208 66.91283622 15.05331923 67.90657195 27.9375 64.875 C36.55017589 62.06876777 42.5542378 57.75397739 46.90625 49.71484375 C49.83543016 42.44420015 49.5950587 35.29087921 47 28 C45.71927629 25.9659094 44.39712274 23.95597184 43 22 C43 21.34 43 20.68 43 20 C42.11054688 19.57400513 42.11054688 19.57400513 41.203125 19.1394043 C39 18 39 18 35.75 15.76953125 C29.33692515 11.71971613 22.06879876 9.34291102 15 6.6875 C13.54267313 6.13293768 12.08563907 5.57760528 10.62890625 5.02148438 C7.08925128 3.67208602 3.54579518 2.33317569 0 1 C0 0.67 0 0.34 0 0 Z " fill="#030E36" transform="translate(89,120)"/>
<path d="M0 0 C4.67004217 1.33429776 8.38619402 2.70654696 12 6 C12.8521302 9.48308593 12.69802446 12.88595307 12.5859375 16.453125 C12.57744781 17.46848328 12.56895813 18.48384155 12.56021118 19.52996826 C12.52664007 22.77106101 12.45135063 26.00966014 12.375 29.25 C12.34490534 31.44788072 12.31752867 33.64580046 12.29296875 35.84375 C12.22683727 41.23001659 12.12645237 46.61483018 12 52 C9.04581561 52.91963949 8.29185314 53.12217108 5.3125 51.875 C2.46009948 49.56224282 2.48754651 48.55652347 2 45 C1.90441294 43.27146741 1.82153834 41.54219479 1.75 39.8125 C1.05758103 32.02803221 -1.71541385 25.64920998 -7.6875 20.5 C-8.78740417 19.6610487 -9.89098621 18.82687174 -11 18 C-11.66 17.34 -12.32 16.68 -13 16 C-4.66156202 17.29709035 -4.66156202 17.29709035 -2 20.125 C0.20885653 23.30023127 1.58754559 26.4046615 3 30 C3.556875 31.2065625 3.556875 31.2065625 4.125 32.4375 C6.06405955 38.11617441 6.30923686 43.18116953 5 49 C6.65 49.33 8.3 49.66 10 50 C9.9278125 48.88625 9.855625 47.7725 9.78125 46.625 C9.30490413 38.90120943 8.94911487 31.23923821 9.0625 23.5 C9.33786096 14.52340994 9.33786096 14.52340994 7 6 C4.64668365 4.23365401 2.9115784 3.75485366 0 3 C0 2.01 0 1.02 0 0 Z " fill="#011136" transform="translate(171,33)"/>
<path d="M0 0 C2.47070312 0.98828125 2.47070312 0.98828125 4.94140625 1.9765625 C6.51873535 2.60715576 6.51873535 2.60715576 8.12792969 3.25048828 C10.42999053 4.1717708 12.73141717 5.09463953 15.03222656 6.01904297 C22.26559586 8.92534471 22.26559586 8.92534471 29.54296875 11.71875 C45.6587768 17.83222829 60.03950172 26.25760436 68 42 C68.3403125 42.59941406 68.680625 43.19882813 69.03125 43.81640625 C72.41814426 50.82539577 71.23243293 59.42440808 71 67 C70.34 66.67 69.68 66.34 69 66 C69.33 62.04 69.66 58.08 70 54 C69.34 54 68.68 54 68 54 C66.70756464 49.8803623 65.73747375 46.33168317 66 42 C65.34 42 64.68 42 64 42 C62.7109375 40.3203125 62.7109375 40.3203125 61.375 38.125 C60.92898437 37.40570313 60.48296875 36.68640625 60.0234375 35.9453125 C59 34 59 34 59 32 C58.34 32 57.68 32 57 32 C57 31.34 57 30.68 57 30 C56.42765625 29.7215625 55.8553125 29.443125 55.265625 29.15625 C53.03382434 28.01726208 50.89129126 26.80063617 48.75 25.5 C48.04359375 25.0771875 47.3371875 24.654375 46.609375 24.21875 C46.07828125 23.8165625 45.5471875 23.414375 45 23 C45 22.34 45 21.68 45 21 C41.6828589 19.5783681 38.55780196 18.60990891 35 18 C35 17.34 35 16.68 35 16 C33.1128125 15.8453125 33.1128125 15.8453125 31.1875 15.6875 C27.35732976 15.37355162 27.35732976 15.37355162 25.6394043 13.57763672 C23.7432926 11.75296453 22.1981205 11.12058365 19.7265625 10.24609375 C18.4890625 9.80040039 18.4890625 9.80040039 17.2265625 9.34570312 C16.36804688 9.04599609 15.50953125 8.74628906 14.625 8.4375 C12.92951321 7.83251949 11.23419571 7.22706427 9.5390625 6.62109375 C8.74918945 6.34120605 7.95931641 6.06131836 7.14550781 5.77294922 C4.73928611 4.90607417 2.36342387 3.97746543 0 3 C0 2.01 0 1.02 0 0 Z " fill="#040E36" transform="translate(116,94)"/>
<path d="M0 0 C0.33 0 0.66 0 1 0 C1.06058594 1.14339844 1.12117188 2.28679687 1.18359375 3.46484375 C1.26798428 4.95574305 1.35263302 6.44662775 1.4375 7.9375 C1.47681641 8.69224609 1.51613281 9.44699219 1.55664062 10.22460938 C1.44038024 13.91944187 1.44038024 13.91944187 3 17 C3.07179964 18.51928038 3.08392007 20.04167482 3.0625 21.5625 C3.05347656 22.38878906 3.04445312 23.21507812 3.03515625 24.06640625 C3.02355469 24.70449219 3.01195312 25.34257812 3 26 C10.28438522 29.91495593 17.45745087 31.95846168 25.48779297 33.61132812 C30.82914417 34.71291806 35.85840669 36.16371667 41 38 C41.66 38 42.32 38 43 38 C43 38.66 43 39.32 43 40 C43.6290625 39.97679687 44.258125 39.95359375 44.90625 39.9296875 C50.67016398 39.80815919 55.47263742 40.36226294 61 42 C61 42.33 61 42.66 61 43 C54.82446673 43.17848362 49.1309728 42.55996012 43.0625 41.4375 C42.12607666 41.26621582 41.18965332 41.09493164 40.22485352 40.91845703 C27.23704948 38.41985703 13.07773584 35.53502519 1 30 C-0.40912096 27.18175808 -0.11183553 24.82748718 -0.09765625 21.6796875 C-0.09443359 20.42285156 -0.09121094 19.16601562 -0.08789062 17.87109375 C-0.07951172 16.55238281 -0.07113281 15.23367187 -0.0625 13.875 C-0.05748489 12.53515789 -0.05292201 11.195314 -0.04882812 9.85546875 C-0.03701086 6.57026794 -0.02053617 3.28515603 0 0 Z " fill="#040F39" transform="translate(51,164)"/>
<path d="M0 0 C1.26554813 3.79664438 0.35902625 6.47851256 -0.5 10.25 C-2.76390519 21.27412466 -2.76555822 31.80331634 2.2578125 42.14453125 C2.50273438 42.75683594 2.74765625 43.36914062 3 44 C2.67 44.66 2.34 45.32 2 46 C1.34 44.35 0.68 42.7 0 41 C-0.66 41 -1.32 41 -2 41 C-6.34123551 28.41314736 -7.32972347 16.00287298 -3.05078125 3.1484375 C-2 1 -2 1 0 0 Z " fill="#175383" transform="translate(61,54)"/>
<path d="M0 0 C-3.98659799 1.328866 -7.37173367 0.51064768 -11.4375 -0.0625 C-23.58767707 -1.55328958 -33.84789836 -0.49517036 -44 7 C-46.34870934 9.48991431 -48.21694823 12.08623248 -50 15 C-50.66 15.99 -51.32 16.98 -52 18 C-52.66 18 -53.32 18 -54 18 C-51.59705274 9.5896846 -47.35775004 4.49419327 -40 0 C-28.45961927 -6.37946513 -12.00269782 -3.56263822 0 0 Z " fill="#030A1D" transform="translate(153,46)"/>
<path d="M0 0 C0.33 0 0.66 0 1 0 C1.36754374 6.98333105 0.57848268 11.73946706 -3.81640625 17.296875 C-9.05644083 23.0337286 -14.28878883 26.56586917 -22 28 C-25.18819627 28.00922778 -27.84949955 27.61977058 -31 27 C-27.98063454 25.33899709 -25.16578966 24.50485308 -21.8125 23.75 C-13.69001429 21.55151387 -8.05318944 18.19209259 -3.5 11 C-1.5125936 7.36557172 -0.22101501 4.19928517 0 0 Z " fill="#030A36" transform="translate(138,161)"/>
<path d="M0 0 C5.03441871 1.28787455 7.83259566 2.84213698 11 7 C11.68229595 10.37981422 11.58295108 13.67725584 11.48828125 17.11328125 C11.47766914 18.56760811 11.47766914 18.56760811 11.46684265 20.05131531 C11.43891874 23.13917137 11.37618303 26.22519475 11.3125 29.3125 C11.28741458 31.40947897 11.26460184 33.50648644 11.24414062 35.60351562 C11.18909838 40.73638009 11.10283859 45.86787964 11 51 C9.35 51 7.7 51 6 51 C5.67 50.34 5.34 49.68 5 49 C6.65 49.33 8.3 49.66 10 50 C9.9278125 48.88625 9.855625 47.7725 9.78125 46.625 C9.30490413 38.90120943 8.94911487 31.23923821 9.0625 23.5 C9.33786096 14.52340994 9.33786096 14.52340994 7 6 C4.64668365 4.23365401 2.9115784 3.75485366 0 3 C0 2.01 0 1.02 0 0 Z " fill="#072159" transform="translate(171,33)"/>
<path d="M0 0 C18.5546875 7.421875 18.5546875 7.421875 21.83496094 8.74804688 C23.88286589 9.55810986 25.9431981 10.33770706 28.01660156 11.08007812 C28.92120117 11.40943359 29.82580078 11.73878906 30.7578125 12.078125 C31.55590332 12.3555957 32.35399414 12.63306641 33.17626953 12.91894531 C35 14 35 14 35.76513672 16.12011719 C35.8426416 16.74047852 35.92014648 17.36083984 36 18 C35.505 17.01 35.505 17.01 35 16 C33.00660901 15.77493973 31.01059507 15.55595654 29.0078125 15.44140625 C27 15 27 15 25.64160156 13.58203125 C23.74426972 11.75354964 22.20127802 11.12170085 19.7265625 10.24609375 C18.4890625 9.80040039 18.4890625 9.80040039 17.2265625 9.34570312 C16.36804688 9.04599609 15.50953125 8.74628906 14.625 8.4375 C12.92951321 7.83251949 11.23419571 7.22706427 9.5390625 6.62109375 C8.74918945 6.34120605 7.95931641 6.06131836 7.14550781 5.77294922 C4.73928611 4.90607417 2.36342387 3.97746543 0 3 C0 2.01 0 1.02 0 0 Z " fill="#061D4D" transform="translate(116,94)"/>
<path d="M0 0 C-1.90250074 2.60713065 -3.43928635 4.67291704 -6.25 6.3125 C-10.4431465 8.88556717 -13.61279217 12.46150249 -17 16 C-17.33 15.34 -17.66 14.68 -18 14 C-14.84114417 6.67719785 -8.57812505 -0.74131945 0 0 Z " fill="#145482" transform="translate(83,32)"/>
<path d="M0 0 C3.73487777 0.4979837 5.81237635 0.87491756 9 3 C9.52416992 5.06298828 9.52416992 5.06298828 9.73046875 7.5703125 C9.81103516 8.46621094 9.89160156 9.36210937 9.97460938 10.28515625 C10.04486328 11.22230469 10.11511719 12.15945312 10.1875 13.125 C10.3102832 14.54232422 10.3102832 14.54232422 10.43554688 15.98828125 C10.63615421 18.32476674 10.8237477 20.66157176 11 23 C8.00371461 20.00371461 8.2750714 16.41506529 7.875 12.375 C7.78863281 11.57320312 7.70226563 10.77140625 7.61328125 9.9453125 C7.40103673 7.96436365 7.19950069 5.98227282 7 4 C3.75016865 5.08784968 3.75016865 5.08784968 1 7 C0.76636119 8.84891946 0.58696365 10.70488031 0.4375 12.5625 C0.35371094 13.57441406 0.26992188 14.58632812 0.18359375 15.62890625 C0.12300781 16.41136719 0.06242187 17.19382813 0 18 C-0.33 18 -0.66 18 -1 18 C-1.02717692 15.93757383 -1.0464758 13.87504297 -1.0625 11.8125 C-1.07410156 10.66394531 -1.08570313 9.51539063 -1.09765625 8.33203125 C-1.01192832 5.40699414 -0.67849023 2.83683709 0 0 Z " fill="#05153F" transform="translate(51,142)"/>
<path d="M0 0 C0.33 0 0.66 0 1 0 C1.5507107 12.64594951 -0.09473993 24.12934305 -7 35 C-7.99 35.495 -7.99 35.495 -9 36 C-8.39021846 33.11624147 -7.47144177 30.91756483 -6 28.375 C-3.88182406 24.30687871 -3.42192894 20.64474561 -3.17578125 16.1015625 C-3 14 -3 14 -2 12 C-1.34 12 -0.68 12 0 12 C0 8.04 0 4.08 0 0 Z " fill="#05061E" transform="translate(187,149)"/>
<path d="M0 0 C4.66292362 3.81511933 5.46186007 9.76291666 6.046875 15.4765625 C5.95949529 20.1805036 4.46788969 24.56315829 3 29 C2.04642135 26.13926406 1.90497319 24.49643903 1.97265625 21.54296875 C1.98490234 20.67736328 1.99714844 19.81175781 2.00976562 18.91992188 C2.04469734 17.1099416 2.08370662 15.30003507 2.12695312 13.49023438 C2.18905608 8.56218214 1.95014626 4.62681759 0 0 Z " fill="#041347" transform="translate(136,143)"/>
<path d="M0 0 C3.96 0 7.92 0 12 0 C12 0.66 12 1.32 12 2 C12.6290625 1.97679687 13.258125 1.95359375 13.90625 1.9296875 C19.67016398 1.80815919 24.47263742 2.36226294 30 4 C30 4.33 30 4.66 30 5 C23.26795268 5.25645895 17.0986393 4.28162548 10.5 3 C9.48679687 2.80921875 8.47359375 2.6184375 7.4296875 2.421875 C4.95182561 1.95435389 2.47541732 1.48026672 0 1 C0 0.67 0 0.34 0 0 Z " fill="#01042E" transform="translate(82,202)"/>
<path d="M0 0 C0.66 0.33 1.32 0.66 2 1 C1.16855469 2.13888672 1.16855469 2.13888672 0.3203125 3.30078125 C-0.76636719 4.79158203 -0.76636719 4.79158203 -1.875 6.3125 C-2.95394531 7.79169922 -2.95394531 7.79169922 -4.0546875 9.30078125 C-5.4055935 11.17523115 -6.71835329 13.07752993 -8 15 C-8.66 15 -9.32 15 -10 15 C-8.20374068 8.71309239 -5.61279757 3.60822701 0 0 Z " fill="#041030" transform="translate(109,49)"/>
<path d="M0 0 C-4.27171492 5.79732739 -4.27171492 5.79732739 -8 7 C-8.99 6.67 -9.98 6.34 -11 6 C-7.34769214 1.25199978 -6.01084259 -0.15818007 0 0 Z " fill="#166399" transform="translate(83,32)"/>
<path d="M0 0 C1 3 1 3 0.328125 4.83203125 C-0.02765625 5.48558594 -0.3834375 6.13914063 -0.75 6.8125 C-1.12125 7.50988281 -1.4925 8.20726562 -1.875 8.92578125 C-2.24625 9.61027344 -2.6175 10.29476562 -3 11 C-3.5775 12.155 -4.155 13.31 -4.75 14.5 C-5.36875 15.7375 -5.36875 15.7375 -6 17 C-6.99 17 -7.98 17 -9 17 C-7.64123318 13.34380137 -5.98126486 10.13173482 -3.9375 6.8125 C-1.86894235 3.4614921 -1.86894235 3.4614921 0 0 Z " fill="#05113E" transform="translate(183,170)"/>
<path d="M0 0 C3.37244652 3.99697365 6.71374722 8.27090179 9 13 C8.67 13.66 8.34 14.32 8 15 C7.7525 14.21625 7.505 13.4325 7.25 12.625 C5.82508536 9.63267926 5.02232813 9.13337305 2 8 C1.34 7.67 0.68 7.34 0 7 C0 4.69 0 2.38 0 0 Z " fill="#091748" transform="translate(62,165)"/>
<path d="M0 0 C0.33 0 0.66 0 1 0 C1.06058594 0.89203125 1.12117188 1.7840625 1.18359375 2.703125 C1.26738281 3.87359375 1.35117188 5.0440625 1.4375 6.25 C1.55931641 7.99023438 1.55931641 7.99023438 1.68359375 9.765625 C1.93247787 12.30977376 2.28114942 14.55953248 3 17 C2.01 16.67 1.02 16.34 0 16 C-1.02224111 11.01657457 -1.3632306 6.07454515 -1 1 C-0.67 0.67 -0.34 0.34 0 0 Z " fill="#040F32" transform="translate(99,65)"/>
<path d="M0 0 C2.31 0 4.62 0 7 0 C7 0.66 7 1.32 7 2 C7.69867188 2.04898438 8.39734375 2.09796875 9.1171875 2.1484375 C10.02726562 2.22320312 10.93734375 2.29796875 11.875 2.375 C12.77992187 2.44460937 13.68484375 2.51421875 14.6171875 2.5859375 C17 3 17 3 19 5 C4.77631579 3.18421053 4.77631579 3.18421053 0 0 Z " fill="#09244E" transform="translate(89,120)"/>
<path d="M0 0 C0.98484375 0.00902344 1.9696875 0.01804687 2.984375 0.02734375 C4.10585937 0.04474609 4.10585937 0.04474609 5.25 0.0625 C5.25 0.3925 5.25 0.7225 5.25 1.0625 C-2.67 2.5475 -2.67 2.5475 -10.75 4.0625 C-10.42 3.0725 -10.09 2.0825 -9.75 1.0625 C-6.58321116 -0.2085735 -3.37266213 -0.04015074 0 0 Z " fill="#1B5B8D" transform="translate(101.75,23.9375)"/>
<path d="M0 0 C3.59075147 1.33370769 6.84621398 2.80987082 10 5 C10.33 5.99 10.66 6.98 11 8 C10.34 8 9.68 8 9 8 C9 7.34 9 6.68 9 6 C8.2575 5.71125 7.515 5.4225 6.75 5.125 C4.43260203 4.17697356 2.22082885 3.15154089 0 2 C0 1.34 0 0.68 0 0 Z " fill="#03123F" transform="translate(152,109)"/>
<path d="M0 0 C3.40312738 1.05875074 6.01353231 2.00902154 9 4 C9 4.66 9 5.32 9 6 C6.03 5.01 3.06 4.02 0 3 C0 2.01 0 1.02 0 0 Z " fill="#062050" transform="translate(171,33)"/>
<path d="M0 0 C0.33 0 0.66 0 1 0 C1.27429625 5.39449293 1.36055646 8.51925805 -2 13 C-2.66 12.67 -3.32 12.34 -4 12 C-3.525625 11.13375 -3.05125 10.2675 -2.5625 9.375 C-1.06765105 6.14612626 -0.41781687 3.50966174 0 0 Z " fill="#020424" transform="translate(138,161)"/>
<path d="M0 0 C0 0.66 0 1.32 0 2 C-2.52475462 3.26237731 -4.31200466 3.09856404 -7.125 3.0625 C-8.03507813 3.05347656 -8.94515625 3.04445312 -9.8828125 3.03515625 C-10.58148438 3.02355469 -11.28015625 3.01195312 -12 3 C-7.97258718 0.8965105 -4.56872973 0 0 0 Z " fill="#05104C" transform="translate(147,202)"/>
<path d="M0 0 C3.96 0 7.92 0 12 0 C12 0.99 12 1.98 12 3 C6.06 2.01 6.06 2.01 0 1 C0 0.67 0 0.34 0 0 Z " fill="#010314" transform="translate(82,202)"/>
<path d="M0 0 C0.99 0.33 1.98 0.66 3 1 C2.34 2.65 1.68 4.3 1 6 C0.01 6 -0.98 6 -2 6 C-1.125 1.125 -1.125 1.125 0 0 Z " fill="#16547C" transform="translate(62,49)"/>
<path d="M0 0 C0 0.66 0 1.32 0 2 C-2.31 3.32 -4.62 4.64 -7 6 C-7 5.01 -7 4.02 -7 3 C-2.77777778 0 -2.77777778 0 0 0 Z " fill="#051246" transform="translate(167,193)"/>
<path d="M0 0 C5.4611399 0.35233161 5.4611399 0.35233161 8 1 C9.5 3.0625 9.5 3.0625 10 5 C5 3 5 3 0 1 C0 0.67 0 0.34 0 0 Z " fill="#010B2B" transform="translate(117,131)"/>
<path d="M0 0 C1.98 0 3.96 0 6 0 C6 0.66 6 1.32 6 2 C2.25 3.125 2.25 3.125 0 2 C0 1.34 0 0.68 0 0 Z " fill="#19191F" transform="translate(61,219)"/>
</svg>
